# xmcd
#
# Track frame offsets:
#	150
#	17907
#	37306
#	56120
#	74760
#	103436
#	118983
#	140258
#	152923
#	175657
#	196681
#	211221
#	225000
#	245679
#
# Disc length: 3971 seconds
#
# Revision: 2
# Processed by: cddbd v1.4PL0 Copyright (c) Steve Scherf et al.
# Submitted via: audiograbber 1.80
#
DISCID=cf0f810e
DTITLE=Fatman Arne and The Petitpetits - Glad To Be Fat
DYEAR=1900
DGENRE=
TTITLE0=You're A Bad One Baby
TTITLE1=What's A Big Idea
TTITLE2=Fatman's On The Road
TTITLE3=Waiting For The Tide To Turn
TTITLE4=Another Harp Attack
TTITLE5=Can't Play The Blues
TTITLE6=Diggin' On James Brown
TTITLE7=Guilty
TTITLE8=What Went Wrong
TTITLE9=Another Fine Day
TTITLE10=Ham-Buger
TTITLE11=I'm Ready
TTITLE12=Boogie Thing
TTITLE13=Terrible Dream
EXTD=
EXTT0=
EXTT1=
EXTT2=
EXTT3=
EXTT4=
EXTT5=
EXTT6=
EXTT7=
EXTT8=
EXTT9=
EXTT10=
EXTT11=
EXTT12=
EXTT13=
PLAYORDER=
